# xmcd
#
# Track frame offsets: 
#        150
#        17841
#        34914
#        50706
#        69974
#        85881
#        104257
#        122470
#        140950
#
# Disc length: 2044 seconds
#
# Revision: 0
# Processed by: cddbd v1.5.2PL0 Copyright (c) Steve Scherf et al.
# Submitted via: ExactAudioCopy v0.95b4
#
DISCID=7b07fa09
DTITLE=The Larry Thomas Project - The Larry Thomas Project
DYEAR=2008
DGENRE=Blues
TTITLE0=Thats what I want you to do
TTITLE1=Sweet Melody
TTITLE2=I'm doing alright
TTITLE3=For you
TTITLE4=Sade
TTITLE5=Do you Know
TTITLE6=Blues man
TTITLE7=Will see you again
TTITLE8=Mony
EXTD=
EXTT0=
EXTT1=
EXTT2=
EXTT3=
EXTT4=
EXTT5=
EXTT6=
EXTT7=
EXTT8=
PLAYORDER=
